<?xml version="1.0" encoding="utf-8"?>
<!-- Generator: Adobe Illustrator 28.0.0, SVG Export Plug-In . SVG Version: 6.00 Build 0)  -->
<svg version="1.1" id="Слой_1" xmlns="http://www.w3.org/2000/svg" xmlns:xlink="http://www.w3.org/1999/xlink" x="0px" y="0px"
	 viewBox="0 0 246 42" style="enable-background:new 0 0 246 42;" xml:space="preserve">
<style type="text/css">
	.st0{display:none;}
	.st1{display:inline;fill:#1D1D1B;stroke:#000000;stroke-miterlimit:10;}
	.st2{fill-rule:evenodd;clip-rule:evenodd;fill:#FFFFFF;}
	.st3{fill-rule:evenodd;clip-rule:evenodd;fill:#FAC638;}
	.st4{enable-background:new    ;}
	.st5{fill:#FFFFFF;}
</style>
<g id="Слой_2_00000043451164127760260110000000119081694582298506_" class="st0">
	<rect x="0.3" y="0.1" class="st1" width="245.9" height="42.1"/>
</g>
<path class="st2" d="M32.6,7.6c12,0,11.3,18.6,4.7,22.6c-4.3,2.6-11,1.2-12.9-6.2C22.8,17.6,24.7,7.6,32.6,7.6z M31,38.9h3.5
	c12.7,0,20.1-16.9,13.2-30.4C41.1-4.2,21-2.3,16.8,11.6c-2.3,7.4-1.6,14.6,2.8,21C21.7,35.7,27,38.9,31,38.9L31,38.9z"/>
<path class="st2" d="M0.3,4.1v34.1h8.1V0.1C7.4,0.2,1.7,3.4,0.3,4.1z"/>
<path class="st2" d="M57.9,8v30.2h7.9V4.5C65.8,3.9,58.4,0,58,0C57.8,0.6,57.9,6.7,57.9,8z"/>
<rect x="134.8" y="24.1" class="st3" width="52.5" height="2.6"/>
<g class="st4">
	<path class="st5" d="M81.7,18.9c-0.6,0.3-2,0.6-3.7,0.6c-4.5,0-7.2-2.8-7.2-7.1c0-4.7,3.3-7.5,7.6-7.5c1.7,0,2.9,0.4,3.4,0.6
		l-0.5,2.1C80.6,7.3,79.6,7,78.5,7c-2.9,0-5,1.8-5,5.2c0,3.1,1.8,5.1,4.9,5.1c1,0,2.1-0.2,2.8-0.5L81.7,18.9z"/>
	<path class="st5" d="M91.8,13h-5.3v4.2h6v2.1h-8.5V5.1h8.2v2.1h-5.6v3.7h5.3V13z"/>
	<path class="st5" d="M94.7,5.3C95.6,5.1,96.9,5,98.6,5c1.9,0,3.3,0.4,4.2,1.2c0.8,0.7,1.4,1.8,1.4,3.1c0,1.3-0.4,2.4-1.2,3.2
		c-1,1-2.6,1.5-4.5,1.5c-0.5,0-0.9,0-1.3-0.1v5.4h-2.6V5.3z M97.2,11.9C97.6,12,98,12,98.5,12c1.9,0,3.1-1,3.1-2.6
		c0-1.6-1.1-2.4-2.9-2.4c-0.7,0-1.2,0.1-1.5,0.1V11.9z"/>
	<path class="st5" d="M106.4,5.3c0.8-0.2,2.3-0.3,3.8-0.3c1.9,0,3.1,0.3,4,0.9c0.9,0.5,1.5,1.4,1.5,2.7c0,1.3-0.8,2.5-2.4,3v0.1
		c1.5,0.4,2.9,1.6,2.9,3.5c0,1.3-0.5,2.2-1.3,2.9c-1,0.9-2.7,1.3-5.3,1.3c-1.4,0-2.5-0.1-3.2-0.2V5.3z M109,10.9h1.3
		c1.8,0,2.8-0.8,2.8-2c0-1.3-1-2-2.6-2c-0.8,0-1.2,0-1.5,0.1V10.9z M109,17.4c0.3,0.1,0.8,0.1,1.4,0.1c1.7,0,3.1-0.6,3.1-2.4
		c0-1.7-1.4-2.3-3.2-2.3H109V17.4z"/>
	<path class="st5" d="M120.9,5.1v5c0,2.2,0,4.3-0.2,6.2l0.1,0c0.7-1.6,1.6-3.3,2.6-4.9l3.7-6.3h2.6v14.2h-2.4v-5
		c0-2.2,0-4.1,0.2-5.9h-0.1c-0.7,1.6-1.6,3.4-2.5,4.9l-3.6,6h-2.9V5.1H120.9z"/>
	<path class="st5" d="M142.8,18.9c-0.6,0.3-2,0.6-3.7,0.6c-4.5,0-7.2-2.8-7.2-7.1c0-4.7,3.3-7.5,7.6-7.5c1.7,0,2.9,0.4,3.4,0.6
		l-0.5,2.1c-0.7-0.3-1.6-0.5-2.8-0.5c-2.9,0-5,1.8-5,5.2c0,3.1,1.8,5.1,4.9,5.1c1,0,2.1-0.2,2.8-0.5L142.8,18.9z"/>
	<path class="st5" d="M147.6,5.1v5.7h6V5.1h2.6v14.2h-2.6V13h-6v6.2H145V5.1H147.6z"/>
	<path class="st5" d="M161.7,5.1v5.1c0.4-0.1,1.1-0.1,1.6-0.1c2.9,0,5.5,1.4,5.5,4.6c0,1.3-0.4,2.3-1.1,3c-1.3,1.3-3.5,1.7-5.5,1.7
		c-1.4,0-2.5-0.1-3.1-0.2V5.1H161.7z M161.7,17.4c0.3,0.1,0.7,0.1,1.3,0.1c1.7,0,3.2-0.9,3.2-2.8c0-1.9-1.7-2.6-3.2-2.6
		c-0.5,0-1,0-1.3,0.1V17.4z M172.9,5.1v14.2h-2.6V5.1H172.9z"/>
	<path class="st5" d="M178.5,5.1v5c0,2.2,0,4.3-0.2,6.2l0.1,0c0.7-1.6,1.6-3.3,2.6-4.9l3.7-6.3h2.6v14.2h-2.4v-5
		c0-2.2,0-4.1,0.2-5.9H185c-0.7,1.6-1.6,3.4-2.5,4.9l-3.6,6h-2.9V5.1H178.5z M180.6,2c0.1,0.8,0.3,1.3,1.1,1.3c0.8,0,1-0.5,1.1-1.3
		h1.8c-0.1,1.6-1.2,2.5-3,2.5c-1.8,0-2.7-0.9-2.9-2.5H180.6z"/>
</g>
<g class="st4">
	<path class="st5" d="M74.1,24.1v12h5.6v-12h2.6v12.1l1.3,0.1l-0.1,5.5h-2l-0.1-3.5h-9.9V24.1H74.1z"/>
	<path class="st5" d="M93.6,32h-5.3v4.2h6v2.1h-8.5V24.1h8.2v2.1h-5.6v3.7h5.3V32z"/>
	<path class="st5" d="M99.1,24.1v5.7h6v-5.7h2.6v14.2h-2.6V32h-6v6.2h-2.6V24.1H99.1z"/>
	<path class="st5" d="M113.3,26.3h-4v-2.2H120v2.2h-4.1v12h-2.6V26.3z"/>
	<path class="st5" d="M121.6,24.3c0.9-0.2,2.2-0.3,3.9-0.3c1.9,0,3.3,0.4,4.2,1.2c0.8,0.7,1.4,1.8,1.4,3.1c0,1.3-0.4,2.4-1.2,3.2
		c-1,1-2.6,1.5-4.5,1.5c-0.5,0-0.9,0-1.3-0.1v5.4h-2.6V24.3z M124.2,30.9c0.3,0.1,0.7,0.1,1.3,0.1c1.9,0,3.1-1,3.1-2.6
		c0-1.6-1.1-2.4-2.9-2.4c-0.7,0-1.2,0.1-1.5,0.1V30.9z"/>
</g>
</svg>
